<svg width="2000" height="2000" viewBox="0 0 2000 2000" fill="none" xmlns="http://www.w3.org/2000/svg">
<path d="M398.887 1067.82L107.638 1334.94L194.379 1414.26L512.214 1171.75L587.081 1240.41L243.765 1502.36C211.767 1526.8 167.069 1524.79 137.37 1497.64L27.2742 1396.96C-9.02434 1363.77 -9.12481 1306.34 27.1737 1273.05L324.911 999.975L398.887 1067.82Z" fill="black"/>
<path d="M1499.68 544.092L902.177 999.991L819.751 937.098L1499.8 418.215L1499.68 544.092Z" fill="black"/>
<path d="M1375.22 36.6694C1412.65 -0.875954 1469.41 -10.6649 1517.05 12.3022C1469.41 -10.5639 1412.55 -0.774837 1375.22 36.77C1421.32 -9.59534 1500.12 23.1926 1500.12 88.768L1500.09 115.197L1473.74 102.434L1473.71 102.42L1473.68 102.408C1464.58 97.9959 1453.6 99.6891 1446.04 107.27L1444.46 108.854L667.814 821.167L587.055 759.546L1375.22 36.6694Z" fill="black"/>
<path fill-rule="evenodd" clip-rule="evenodd" d="M137.37 502.335C167.069 475.18 211.767 473.169 243.766 497.609L1499.68 1455.9L1499.8 1581.78L194.379 585.71L107.639 665.029L1444.56 1891.12L1446.14 1892.7C1453.7 1900.28 1464.68 1901.98 1473.78 1897.56L1473.8 1897.55L1473.83 1897.54L1500.09 1884.82L1500.12 1911.31C1500.12 1974.87 1425.86 2007.72 1379.35 1967.16C1378.29 1966.19 1377.24 1965.19 1376.21 1964.18L1375.32 1963.3L27.174 726.922C-8.84096 693.891 -9.02396 637.098 26.4298 603.794L27.2745 603.012L137.37 502.335ZM183.097 577.102L183.087 577.094L183.068 577.08C183.077 577.088 183.087 577.094 183.097 577.102Z" fill="black"/>
<path d="M2000 1674.95C1999.98 1682.8 1999.24 1690.53 1997.83 1698.06C1999.13 1690.98 1999.83 1683.73 1999.9 1676.38L1999.9 1675.25V1674.27C1999.96 1672.9 2000 1671.52 2000 1670.12V1674.95Z" fill="black"/>
<mask id="path-3-inside-1_5_20" fill="white">
<path d="M1985.67 1552.09C1994.64 1558.94 1999.9 1569.61 1999.9 1580.93V1675.25C1999.9 1723.53 1972.4 1767.58 1929.1 1788.5L1517.32 1987.64C1469.62 2010.67 1412.62 2000.92 1375.22 1963.3C1421.32 2009.67 1500.12 1976.78 1500.12 1911.31L1499.42 1180.82L1985.67 1552.09Z"/>
</mask>
<path d="M1985.67 1552.09C1994.64 1558.94 1999.9 1569.61 1999.9 1580.93V1675.25C1999.9 1723.53 1972.4 1767.58 1929.1 1788.5L1517.32 1987.64C1469.62 2010.67 1412.62 2000.92 1375.22 1963.3C1421.32 2009.67 1500.12 1976.78 1500.12 1911.31L1499.42 1180.82L1985.67 1552.09Z" stroke="black" stroke-width="200" mask="url(#path-3-inside-1_5_20)"/>
<mask id="path-4-inside-2_5_20" fill="white">
<path d="M1375.22 36.7693C1412.62 -0.845932 1469.62 -10.6019 1517.32 12.4297L1929.1 211.57C1972.4 232.49 1999.9 276.543 1999.9 324.819V413.633C1999.9 424.94 1994.65 435.597 1985.7 442.445L1800.91 583.902L1499.42 813.718L1500.12 88.7672C1500.12 23.1918 1421.32 -9.59606 1375.22 36.7693Z"/>
</mask>
<path d="M1375.22 36.7693C1412.62 -0.845932 1469.62 -10.6019 1517.32 12.4297L1929.1 211.57C1972.4 232.49 1999.9 276.543 1999.9 324.819V413.633C1999.9 424.94 1994.65 435.597 1985.7 442.445L1800.91 583.902L1499.42 813.718L1500.12 88.7672C1500.12 23.1918 1421.32 -9.59606 1375.22 36.7693Z" stroke="black" stroke-width="200" mask="url(#path-4-inside-2_5_20)"/>
<path d="M1999.9 692.994C1999.9 704.317 1994.63 714.988 1985.67 721.834L1623.95 997.98L1985.67 1274.13C1994.63 1280.97 1999.9 1291.64 1999.9 1302.97V1401.45C1999.9 1431.39 1965.84 1448.39 1942.14 1430.3L1499.91 1092.68L1341.69 1213.47C1329.31 1222.92 1312.29 1223.32 1299.5 1214.44L1231.89 1167.57C1211.71 1153.57 1211.03 1123.82 1230.56 1108.92L1375.86 997.98L1233.54 889.326C1214.02 874.421 1214.69 844.678 1234.87 830.681L1302.46 783.792C1315.25 774.913 1332.28 775.302 1344.66 784.757L1499.91 903.279L1942.14 565.665C1965.84 547.568 1999.9 564.573 1999.9 594.505V692.994Z" fill="black"/>
</svg>
