<svg width="2000" height="2000" viewBox="0 0 2000 2000" fill="none" xmlns="http://www.w3.org/2000/svg">
<mask id="path-1-inside-1_74_23" fill="white">
<path d="M587.081 1240.41L243.765 1502.36C211.767 1526.8 167.069 1524.79 137.37 1497.64L27.2742 1396.96C-9.02435 1363.77 -9.12481 1306.34 27.1736 1273.05L324.911 999.976L587.081 1240.41Z"/>
<path d="M1375.22 36.6694C1412.65 -0.875885 1469.41 -10.6649 1517.05 12.3022C1469.41 -10.5639 1412.55 -0.775661 1375.22 36.769C1421.32 -9.59594 1500.12 23.1918 1500.12 88.767L1499.68 544.092L902.177 999.991L587.055 759.546L1375.22 36.6694Z"/>
</mask>
<path d="M587.081 1240.41L243.765 1502.36C211.767 1526.8 167.069 1524.79 137.37 1497.64L27.2742 1396.96C-9.02435 1363.77 -9.12481 1306.34 27.1736 1273.05L324.911 999.976L587.081 1240.41Z" stroke="black" stroke-width="200" mask="url(#path-1-inside-1_74_23)"/>
<path d="M1375.22 36.6694C1412.65 -0.875885 1469.41 -10.6649 1517.05 12.3022C1469.41 -10.5639 1412.55 -0.775661 1375.22 36.769C1421.32 -9.59594 1500.12 23.1918 1500.12 88.767L1499.68 544.092L902.177 999.991L587.055 759.546L1375.22 36.6694Z" stroke="black" stroke-width="200" mask="url(#path-1-inside-1_74_23)"/>
<mask id="path-2-inside-2_74_23" fill="white">
<path d="M137.37 502.335C167.069 475.18 211.767 473.168 243.766 497.608L1499.68 1455.9L1500.12 1911.31C1500.12 1974.87 1425.84 2007.72 1379.33 1967.15C1377.97 1965.9 1376.64 1964.62 1375.32 1963.3L27.1737 726.922C-9.1249 693.631 -9.02431 636.202 27.2743 603.012L137.37 502.335Z"/>
<path d="M2000 1674.95C1999.98 1682.9 1999.22 1690.73 1997.77 1698.36C1999.17 1690.82 1999.9 1683.1 1999.9 1675.25V1674.26C1999.96 1672.89 2000 1671.51 2000 1670.12V1674.95Z"/>
</mask>
<path d="M137.37 502.335C167.069 475.18 211.767 473.168 243.766 497.608L1499.68 1455.9L1500.12 1911.31C1500.12 1974.87 1425.84 2007.72 1379.33 1967.15C1377.97 1965.9 1376.64 1964.62 1375.32 1963.3L27.1737 726.922C-9.1249 693.631 -9.02431 636.202 27.2743 603.012L137.37 502.335Z" stroke="black" stroke-width="200" mask="url(#path-2-inside-2_74_23)"/>
<path d="M2000 1674.95C1999.98 1682.9 1999.22 1690.73 1997.77 1698.36C1999.17 1690.82 1999.9 1683.1 1999.9 1675.25V1674.26C1999.96 1672.89 2000 1671.51 2000 1670.12V1674.95Z" stroke="black" stroke-width="200" mask="url(#path-2-inside-2_74_23)"/>
<mask id="path-3-inside-3_74_23" fill="white">
<path d="M1985.67 1552.09C1994.64 1558.94 1999.9 1569.61 1999.9 1580.93V1675.25C1999.9 1723.53 1972.4 1767.58 1929.1 1788.5L1517.32 1987.64C1469.62 2010.67 1412.62 2000.92 1375.22 1963.3C1421.32 2009.67 1500.12 1976.78 1500.12 1911.31L1499.42 1180.82L1985.67 1552.09Z"/>
</mask>
<path d="M1985.67 1552.09C1994.64 1558.94 1999.9 1569.61 1999.9 1580.93V1675.25C1999.9 1723.53 1972.4 1767.58 1929.1 1788.5L1517.32 1987.64C1469.62 2010.67 1412.62 2000.92 1375.22 1963.3C1421.32 2009.67 1500.12 1976.78 1500.12 1911.31L1499.42 1180.82L1985.67 1552.09Z" stroke="black" stroke-width="200" mask="url(#path-3-inside-3_74_23)"/>
<mask id="path-4-inside-4_74_23" fill="white">
<path d="M1375.22 36.7691C1412.62 -0.846055 1469.62 -10.602 1517.32 12.4296L1929.1 211.57C1972.4 232.49 1999.9 276.543 1999.9 324.819V413.633C1999.9 424.939 1994.65 435.597 1985.7 442.445L1800.91 583.902L1499.42 813.718L1500.12 88.7671C1500.12 23.1917 1421.32 -9.59618 1375.22 36.7691Z"/>
</mask>
<path d="M1375.22 36.7691C1412.62 -0.846055 1469.62 -10.602 1517.32 12.4296L1929.1 211.57C1972.4 232.49 1999.9 276.543 1999.9 324.819V413.633C1999.9 424.939 1994.65 435.597 1985.7 442.445L1800.91 583.902L1499.42 813.718L1500.12 88.7671C1500.12 23.1917 1421.32 -9.59618 1375.22 36.7691Z" stroke="black" stroke-width="200" mask="url(#path-4-inside-4_74_23)"/>
<mask id="path-5-inside-5_74_23" fill="white">
<path d="M1999.9 692.993C1999.9 704.317 1994.63 714.988 1985.67 721.834L1623.95 997.98L1985.67 1274.13C1994.63 1280.97 1999.9 1291.64 1999.9 1302.97V1401.45C1999.9 1431.39 1965.84 1448.39 1942.14 1430.29L1499.91 1092.68L1341.69 1213.47C1329.31 1222.92 1312.29 1223.31 1299.5 1214.44L1231.89 1167.57C1211.71 1153.57 1211.03 1123.82 1230.56 1108.92L1375.86 997.98L1233.54 889.326C1214.02 874.421 1214.69 844.678 1234.87 830.681L1302.46 783.792C1315.25 774.912 1332.28 775.301 1344.66 784.756L1499.91 903.279L1942.14 565.665C1965.84 547.567 1999.9 564.572 1999.9 594.505V692.993Z"/>
</mask>
<path d="M1999.9 692.993C1999.9 704.317 1994.63 714.988 1985.67 721.834L1623.95 997.98L1985.67 1274.13C1994.63 1280.97 1999.9 1291.64 1999.9 1302.97V1401.45C1999.9 1431.39 1965.84 1448.39 1942.14 1430.29L1499.91 1092.68L1341.69 1213.47C1329.31 1222.92 1312.29 1223.31 1299.5 1214.44L1231.89 1167.57C1211.71 1153.57 1211.03 1123.82 1230.56 1108.92L1375.86 997.98L1233.54 889.326C1214.02 874.421 1214.69 844.678 1234.87 830.681L1302.46 783.792C1315.25 774.912 1332.28 775.301 1344.66 784.756L1499.91 903.279L1942.14 565.665C1965.84 547.567 1999.9 564.572 1999.9 594.505V692.993Z" stroke="black" stroke-width="200" mask="url(#path-5-inside-5_74_23)"/>
</svg>
