<?xml version="1.0" encoding="UTF-8"?>
<svg width="256px" height="256px" viewBox="0 0 256 256" version="1.1" xmlns="http://www.w3.org/2000/svg" xmlns:xlink="http://www.w3.org/1999/xlink">
    <title>sidebar</title>
    <g id="sidebar" stroke="none" fill="none" fill-rule="evenodd" stroke-width="1">
        <g id="Group" transform="translate(-0, 21.4326)">
            <g transform="translate(23.9393, 0)" id="Path" stroke="color(display-p3 0.000 0.000 0.000)" stroke-width="8.25">
                <polygon points="114.432313 8.46041583e-15 136.491554 8.46041583e-15 140.627662 1.37506377 148.899878 2.75012753 157.172093 5.50025506 158.550796 6.87531883 165.444308 9.62544636 172.337821 13.7506377 177.852632 17.875829 194.397062 34.3765941 197.154468 39.8768492 198.53317 41.251913 199.911873 46.752168 202.669278 50.8773593 205.426683 52.2524231 215.077601 53.6274869 223.349816 61.8778695 226.107222 63.2529332 226.107222 67.3781245 202.669278 90.7542086 198.53317 90.7542086 188.882252 81.1287622 187.50355 70.1282521 184.746144 66.0030608 181.988739 64.627997 176.473929 64.627997 169.580416 67.3781245 164.065606 71.5033158 159.929498 74.2534434 154.414688 78.3786347 144.76377 88.004081 140.627662 90.7542086 119.947124 111.380165 115.811016 118.255484 113.053611 122.380675 108.917503 127.88093 106.160098 130.631058 103.402693 134.756249 100.645288 137.506377 97.8878825 141.631568 92.3730722 147.131823 89.6156671 151.257014 81.3434517 159.507397 78.5860465 163.632588 30.3314565 211.75982 27.5740514 213.134884 23.4379437 213.134884 16.5444308 209.009692 4.13610771 196.634119 0 189.7588 0 184.258545 4.13610771 178.75829 23.4379437 159.507397 27.5740514 156.757269 49.6332925 134.756249 53.7694002 132.006122 60.6629131 125.130803 64.7990208 122.380675 71.6925337 115.505356 75.8286414 112.755229 78.5860465 110.005101 82.7221542 107.254974 85.4795594 104.504846 89.6156671 101.754719 92.3730722 99.0045911 99.2665851 96.2544636 125.461934 70.1282521 128.219339 66.0030608 137.870257 56.3776144 140.627662 52.2524231 143.385067 49.5022956 147.521175 42.6269767 148.899878 38.5017854 148.899878 27.5012753 146.142472 22.0010203 142.006365 17.875829 135.112852 13.7506377 132.355447 11.0005101 125.461934 8.2503826 122.704529 6.87531883 115.811016 5.50025506 113.053611 4.1251913 113.053611 1.37506377"></polygon>
            </g>
            <g transform="translate(0, 18.7509)" fill="color(display-p3 0.000 0.000 0.000)" id="Path">
                <path d="M158.943851,174.544344 C134.122693,188.783754 99.993788,190.247072 65.6572506,175.632645 C37.8556882,163.88635 14.7876379,143.324146 0,119.830807 C7.09808725,125.704329 15.3790261,130.404797 24.2514283,134.514238 C59.711107,151.019503 95.1635662,149.889201 120.112568,134.55624 C84.6217557,107.535487 54.4180923,72.2478504 31.9420318,43.4680407 C27.2079933,38.7683228 23.6589121,32.8940504 20.1099061,27.6075802 C47.3189523,52.2784743 90.5002928,83.4091179 105.876085,92.2242767 C73.3482301,58.1517717 44.3623873,15.8609855 45.543058,17.0335149 C97.0052622,68.725687 144.919438,98.0970491 144.919438,98.0970491 C146.504695,98.9850902 147.728231,99.7238745 148.711873,100.384655 C149.748908,97.7647837 150.658099,95.0444075 151.424407,92.2242767 C159.704895,62.2663875 150.243737,28.1938074 129.538381,0 C177.448045,28.7827347 205.843553,82.8225907 194.009772,128.054938 C193.701444,129.275245 193.366044,130.479801 193.004322,131.662606 C216.661354,161.034718 210.5715,192.671935 207.614559,186.798412 C194.780592,161.858256 171.02279,169.48461 158.943851,174.544344 Z"></path>
            </g>
        </g>
    </g>
</svg>