<svg width="2000" height="2000" viewBox="0 0 2000 2000" fill="none" xmlns="http://www.w3.org/2000/svg">
<path d="M1672.35 1266.49C1760.13 917.028 1546.66 501.666 1183.56 284C1343.16 499.669 1412.99 761.267 1351.14 988.918C1345.16 1008.89 1339.17 1028.86 1331.19 1048.83C1323.21 1042.83 1313.24 1036.84 1299.27 1030.85C1299.27 1030.85 938.168 807.197 547.138 413.801C537.163 403.816 756.618 727.319 1004 988.918C886.297 923.019 561.104 685.384 353.619 497.672C379.554 539.608 409.48 581.543 441.401 619.485C612.975 839.148 838.416 1108.73 1107.75 1316.41C918.217 1432.24 650.881 1442.22 385.54 1316.41C319.703 1286.46 257.856 1248.52 200 1206.58C311.723 1386.31 485.292 1542.07 696.767 1633.93C948.143 1741.76 1199.52 1735.77 1385.06 1635.92C1385.06 1635.92 1387.05 1635.92 1387.05 1633.93C1395.03 1629.93 1403.01 1623.94 1410.99 1619.95C1500.77 1574.02 1676.34 1528.09 1772.1 1711.81C1800.03 1753.74 1849.91 1514.11 1666.36 1290.45C1668.36 1282.47 1670.35 1274.48 1672.35 1266.49Z" stroke="white" stroke-width="100" stroke-linejoin="round"/>
</svg>
