<svg width="2000" height="2000" viewBox="0 0 2000 2000" fill="none" xmlns="http://www.w3.org/2000/svg">
<path d="M1672.35 1265.75C1760.13 916.195 1546.66 500.723 1183.56 283C1343.16 498.726 1412.99 760.393 1351.14 988.103C1345.16 1008.08 1339.17 1028.05 1331.19 1048.03C1323.21 1042.03 1313.24 1036.04 1299.27 1030.05C1299.27 1030.05 938.168 806.334 547.138 412.835C537.163 402.848 756.618 726.436 1004 988.103C886.297 922.187 561.104 684.489 353.619 496.728C379.554 538.675 409.48 580.621 441.401 618.573C612.975 838.294 838.416 1107.95 1107.75 1315.69C918.217 1431.54 650.881 1441.53 385.54 1315.69C319.703 1285.72 257.856 1247.77 200 1205.83C311.723 1385.6 485.292 1541.4 696.767 1633.28C948.143 1741.15 1199.52 1735.15 1385.06 1635.28C1385.06 1635.28 1387.05 1635.28 1387.05 1633.28C1395.03 1629.29 1403.01 1623.3 1410.99 1619.3C1500.77 1573.36 1676.34 1527.42 1772.1 1711.18C1800.03 1753.13 1849.91 1513.44 1666.36 1289.72C1668.36 1281.73 1670.35 1273.74 1672.35 1265.75Z" stroke="black" stroke-width="100" stroke-linejoin="round"/>
</svg>
